<?xml version="1.0" standalone="no"?>
<!DOCTYPE svg PUBLIC "-//W3C//DTD SVG 20010904//EN"
 "http://www.w3.org/TR/2001/REC-SVG-20010904/DTD/svg10.dtd">
<svg version="1.0" xmlns="http://www.w3.org/2000/svg"
 width="1168.000000pt" height="202.000000pt" viewBox="0 0 1168.000000 202.000000"
 preserveAspectRatio="xMidYMid meet">

<g transform="translate(0.000000,202.000000) scale(0.100000,-0.100000)"
fill="#000000" stroke="none">
<path d="M2830 1614 c-154 -30 -289 -117 -374 -241 -159 -233 -131 -531 67
-727 78 -78 160 -127 252 -151 32 -8 59 -16 60 -17 1 -2 -24 -48 -56 -102 -54
-92 -59 -98 -67 -75 -44 113 -46 115 -127 102 -66 -12 -67 -8 -20 67 30 49 32
57 19 70 -18 18 -25 10 -80 -87 -29 -53 -33 -66 -23 -84 10 -19 17 -21 68 -16
32 4 64 9 73 12 11 4 21 -11 39 -56 26 -68 49 -90 75 -74 9 6 46 61 83 124
l66 113 65 4 c83 6 166 27 230 59 27 14 51 25 54 25 4 0 96 -156 96 -163 0 -2
-19 -1 -42 4 -24 4 -56 8 -71 9 -28 0 -34 -8 -76 -114 -6 -16 -16 -5 -54 62
-34 59 -53 82 -67 82 -11 0 -20 -4 -20 -9 0 -5 24 -50 53 -100 72 -126 100
-131 139 -28 13 34 27 61 31 60 55 -11 130 -13 142 -3 23 19 19 34 -39 134
l-54 94 53 52 c197 194 227 496 72 727 -103 155 -258 241 -447 248 -52 2 -106
1 -120 -1z m240 -61 c90 -25 151 -62 226 -137 108 -108 154 -220 154 -372 0
-287 -237 -524 -525 -524 -289 0 -525 236 -525 525 0 150 42 253 147 366 136
144 327 196 523 142z"/>
<path d="M2978 1328 c-14 -11 -168 -492 -168 -525 0 -32 56 -54 88 -35 13 9
161 482 162 518 0 23 -29 54 -51 54 -9 0 -22 -6 -31 -12z m39 -50 c-2 -7 -34
-112 -71 -233 -78 -258 -77 -254 -83 -238 -2 7 21 97 52 200 80 268 85 283 97
283 6 0 8 -6 5 -12z"/>
<path d="M2577 1172 c-85 -85 -117 -124 -117 -142 0 -36 216 -250 252 -250 25
0 58 31 58 54 0 5 -41 51 -92 102 l-92 94 92 94 c51 51 92 101 92 110 0 21
-35 56 -58 56 -9 0 -70 -53 -135 -118z m143 61 c0 -4 -44 -52 -97 -105 l-98
-98 98 -98 c53 -53 97 -102 97 -107 0 -5 -49 40 -110 100 l-110 110 102 102
c96 96 118 114 118 96z"/>
<path d="M3112 1274 c-40 -27 -28 -54 68 -149 l90 -89 -90 -92 c-92 -93 -104
-118 -74 -148 32 -33 56 -19 178 103 101 101 118 123 113 143 -7 28 -227 248
-248 248 -8 0 -25 -7 -37 -16z m138 -349 c-58 -58 -107 -100 -109 -94 -2 6 38
52 88 103 50 50 91 96 91 101 0 6 -40 51 -90 100 -49 49 -90 94 -90 100 0 5
48 -38 107 -97 l108 -108 -105 -105z"/>
<path d="M711 1588 c-4 -13 -99 -273 -211 -578 -111 -305 -213 -583 -226 -617
l-23 -63 27 0 c27 0 30 9 241 589 117 324 217 594 221 600 4 7 105 -258 226
-589 201 -550 221 -600 242 -600 12 0 22 3 22 8 0 4 -103 291 -228 637 -220
607 -230 630 -255 633 -21 3 -29 -2 -36 -20z"/>
<path d="M1420 970 l0 -640 450 0 450 0 0 25 0 25 -425 0 -425 0 0 615 0 615
-25 0 -25 0 0 -640z"/>
<path d="M3837 1295 c-120 -174 -217 -322 -215 -329 2 -8 100 -154 218 -325
195 -283 218 -311 243 -311 20 0 26 4 21 13 -5 6 -104 150 -222 320 l-213 308
202 292 c111 160 211 304 221 320 l19 27 -28 0 c-26 0 -47 -27 -246 -315z"/>
<path d="M5090 1596 c-60 -16 -109 -47 -155 -97 -60 -67 -80 -121 -80 -219 0
-109 26 -169 101 -240 84 -79 99 -83 329 -90 173 -5 206 -9 246 -26 110 -50
169 -141 169 -258 -1 -113 -56 -206 -155 -259 -38 -21 -54 -22 -367 -25 l-328
-3 0 -25 0 -24 298 0 c334 0 382 7 461 64 98 70 148 175 139 290 -8 90 -41
157 -108 219 -82 76 -123 87 -324 87 -185 0 -240 11 -308 63 -23 18 -56 55
-73 82 -28 45 -30 56 -30 139 0 68 5 100 18 128 27 54 83 107 141 134 50 23
58 24 329 24 l277 0 0 25 0 25 -267 -1 c-178 0 -283 -4 -313 -13z"/>
<path d="M5940 970 l0 -640 25 0 25 0 0 310 0 310 438 -2 437 -3 3 -307 2
-308 25 0 25 0 0 640 0 640 -25 0 -25 0 0 -310 0 -310 -440 0 -440 0 0 310 0
310 -25 0 -25 0 0 -640z"/>
<path d="M7345 983 c-126 -346 -230 -634 -233 -641 -3 -7 5 -12 20 -12 24 0
35 28 244 599 120 330 221 597 224 595 3 -3 102 -272 222 -597 206 -565 217
-592 242 -595 l26 -3 -28 78 c-16 43 -120 331 -233 640 -198 546 -205 563
-230 563 -25 0 -32 -18 -254 -627z"/>
<path d="M8280 1586 l0 -26 318 0 318 0 51 -26 c61 -30 118 -89 145 -152 17
-37 20 -60 16 -123 -5 -92 -37 -153 -106 -206 -76 -58 -112 -63 -444 -63 -291
0 -298 0 -298 -20 0 -19 8 -20 312 -22 l312 -3 112 -305 c107 -293 113 -305
139 -308 23 -3 27 -1 21 15 -32 80 -225 616 -224 617 39 13 107 59 139 93 64
69 84 123 84 223 0 66 -5 96 -22 132 -30 66 -96 133 -162 165 l-56 28 -327 3
-328 3 0 -25z"/>
<path d="M9371 1602 c2 -5 108 -293 234 -640 223 -613 231 -632 256 -632 25 0
32 16 230 558 l204 557 3 -557 2 -558 25 0 25 0 0 640 0 640 -23 0 c-22 0 -38
-39 -243 -599 -120 -330 -221 -597 -224 -595 -2 3 -102 272 -221 597 -211 577
-217 592 -244 595 -15 2 -26 -1 -24 -6z"/>
<path d="M10772 976 c-128 -349 -232 -637 -232 -640 0 -3 11 -6 24 -6 22 0 37
39 242 600 120 329 221 597 223 594 3 -3 103 -271 222 -597 208 -567 218 -592
243 -595 l26 -3 -23 63 c-13 35 -118 323 -233 640 -203 562 -210 578 -235 578
-25 0 -32 -17 -257 -634z"/>
</g>
</svg>
