<?xml version="1.0" standalone="no"?>
<!DOCTYPE svg PUBLIC "-//W3C//DTD SVG 20010904//EN"
 "http://www.w3.org/TR/2001/REC-SVG-20010904/DTD/svg10.dtd">
<svg version="1.0" xmlns="http://www.w3.org/2000/svg"
 width="2067.000000pt" height="2067.000000pt" viewBox="0 0 2067.000000 2067.000000"
 preserveAspectRatio="xMidYMid meet">
<metadata>
Created by potrace 1.14, written by Peter Selinger 2001-2017
</metadata>
<g transform="translate(0.000000,2067.000000) scale(0.100000,-0.100000)"
fill="#000000" stroke="none">
<path d="M9795 20659 c-1768 -99 -3447 -661 -4910 -1643 -1393 -936 -2519
-2208 -3269 -3696 -565 -1119 -897 -2293 -1005 -3550 -42 -488 -42 -1142 0
-1630 84 -979 304 -1905 664 -2800 725 -1800 1981 -3349 3595 -4436 360 -243
662 -420 1055 -619 1213 -614 2511 -959 3895 -1035 238 -13 792 -13 1030 0
1796 98 3471 658 4950 1654 1382 931 2507 2205 3254 3686 611 1210 949 2481
1026 3854 20 362 11 957 -21 1326 -84 979 -304 1905 -664 2800 -725 1800
-1981 3349 -3595 4436 -361 243 -663 420 -1055 619 -1218 616 -2510 959 -3895
1035 -210 11 -845 11 -1055 -1z m1075 -420 c976 -53 1962 -267 2875 -623 386
-151 887 -391 1240 -594 2678 -1539 4415 -4268 4660 -7317 206 -2562 -647
-5070 -2372 -6975 -1042 -1151 -2336 -2014 -3810 -2541 -697 -249 -1488 -422
-2248 -493 -559 -52 -1201 -52 -1760 0 -1920 179 -3733 946 -5201 2200 -1873
1601 -3033 3867 -3229 6309 -218 2714 752 5359 2674 7293 1084 1091 2415 1895
3884 2346 1056 325 2154 457 3287 395z"/>
<path d="M6914 15092 c-107 -38 -193 -125 -297 -301 -34 -57 -3023 -5926
-3636 -7137 -96 -190 -119 -262 -107 -329 10 -50 56 -95 122 -117 34 -11 42
-16 25 -17 -14 -1 -44 -10 -67 -22 -55 -26 -83 -79 -78 -149 4 -58 11 -72 162
-335 63 -110 123 -213 132 -230 10 -16 47 -81 84 -143 36 -62 77 -132 90 -155
13 -23 61 -105 106 -182 46 -77 111 -187 145 -245 53 -90 147 -247 188 -315 7
-11 49 -75 94 -143 45 -68 85 -132 88 -143 4 -10 12 -19 18 -19 18 -1 62 -37
62 -52 0 -11 184 -13 1005 -13 888 0 1005 2 1001 15 -2 8 -5 31 -7 51 -2 20
-18 65 -36 100 -18 35 -32 66 -33 69 -1 6 -53 114 -130 270 -93 189 -509 993
-525 1015 -4 6 -49 91 -100 190 -127 247 -179 318 -276 378 -43 27 -140 56
-190 58 -18 1 -4 7 35 15 140 31 226 95 305 230 22 39 455 926 961 1972 506
1045 923 1898 926 1894 3 -4 423 -864 933 -1912 510 -1048 941 -1929 959
-1958 79 -131 169 -197 307 -225 l65 -13 -55 -6 c-100 -11 -168 -44 -241 -117
-74 -75 -97 -113 -304 -506 -81 -154 -168 -318 -193 -365 -94 -178 -286 -548
-316 -610 -18 -36 -37 -74 -43 -85 -29 -52 -123 -253 -123 -262 0 -5 -13 -37
-30 -71 -16 -34 -30 -69 -30 -77 0 -8 -5 -15 -10 -15 -7 0 -7 -6 0 -20 11 -20
19 -20 1043 -18 882 3 1032 5 1032 17 0 8 6 16 14 19 8 3 11 0 8 -5 -3 -5 0
-10 8 -10 8 0 15 4 15 9 0 4 7 16 15 25 25 31 61 84 142 211 43 68 104 164
136 213 31 49 57 92 57 94 0 2 21 39 46 82 105 176 309 521 332 562 14 25 38
68 55 95 16 28 38 65 47 81 10 17 68 118 131 225 160 275 189 334 189 384 0
77 -52 127 -153 145 l-42 7 45 7 c58 9 105 38 131 79 16 26 19 46 17 95 -3 51
-13 79 -55 160 -28 54 -844 1653 -1813 3553 -969 1900 -1791 3507 -1827 3570
-147 259 -243 379 -340 422 -65 29 -155 33 -219 10z"/>
<path d="M14160 15043 c-1159 -87 -2000 -577 -2401 -1398 -162 -334 -232 -662
-232 -1095 0 -460 86 -813 274 -1125 204 -339 504 -605 917 -814 363 -183 677
-293 1277 -447 767 -197 978 -275 1135 -420 40 -38 70 -77 92 -122 31 -64 33
-72 33 -182 0 -108 -2 -119 -31 -180 -41 -86 -89 -138 -178 -198 -273 -183
-852 -221 -1382 -92 -167 40 -339 99 -527 180 -214 92 -385 187 -607 335 -102
69 -208 134 -234 146 -96 42 -197 11 -267 -83 -76 -103 -702 -1069 -730 -1126
-36 -75 -47 -153 -29 -218 18 -62 92 -141 233 -247 400 -300 844 -531 1330
-691 89 -30 178 -57 197 -61 33 -8 32 -9 -45 -27 -170 -40 -472 -144 -705
-243 -229 -97 -503 -245 -722 -392 -171 -114 -230 -163 -261 -222 -56 -101
-30 -185 114 -377 255 -338 327 -432 428 -559 196 -246 241 -295 273 -295 11
0 17 -4 14 -9 -9 -14 40 -19 90 -10 26 5 57 6 69 3 16 -4 50 9 112 42 48 26
111 59 138 74 28 14 61 33 75 40 14 8 27 15 30 16 3 0 59 27 125 58 427 206
871 335 1270 371 110 10 459 7 560 -5 401 -47 640 -195 700 -435 18 -72 25
-135 14 -135 -17 0 -9 -35 11 -48 16 -9 240 -12 1034 -12 557 0 1016 3 1019 7
4 3 -1 12 -11 20 -9 8 -12 12 -6 9 7 -3 14 1 18 9 7 18 1 339 -7 385 -43 235
-93 388 -183 559 -246 466 -655 810 -1231 1035 -139 54 -364 126 -399 126 -10
1 40 20 111 44 463 154 815 363 1105 656 356 359 568 805 636 1335 20 158 23
507 5 650 -46 366 -156 659 -348 928 -73 101 -252 289 -357 374 -400 322 -949
557 -1806 773 -316 79 -574 152 -719 202 -283 97 -428 214 -476 382 -24 82
-17 231 13 299 117 263 472 397 954 359 523 -41 1019 -244 1578 -646 131 -94
210 -107 305 -51 24 14 59 44 78 68 64 80 731 1112 749 1160 24 63 24 169 -1
224 -25 54 -71 99 -216 209 -693 525 -1438 811 -2300 884 -109 9 -597 11 -705
3z"/>
</g>
</svg>
