<?xml version="1.0" standalone="no"?>
<!DOCTYPE svg PUBLIC "-//W3C//DTD SVG 20010904//EN"
 "http://www.w3.org/TR/2001/REC-SVG-20010904/DTD/svg10.dtd">
<svg version="1.0" xmlns="http://www.w3.org/2000/svg"
 width="2067.000000pt" height="2067.000000pt" viewBox="0 0 2067.000000 2067.000000"
 preserveAspectRatio="xMidYMid meet">
<metadata>
Created by potrace 1.14, written by Peter Selinger 2001-2017
</metadata>
<g transform="translate(0.000000,2067.000000) scale(0.100000,-0.100000)"
fill="#000000" stroke="none">
<path d="M9968 20665 c-2 -1 -68 -6 -148 -9 -80 -4 -163 -9 -185 -11 -22 -2
-76 -6 -120 -10 -44 -3 -93 -8 -110 -9 -16 -2 -64 -7 -105 -10 -41 -4 -86 -9
-100 -11 -14 -2 -50 -7 -80 -10 -30 -3 -66 -8 -80 -10 -14 -2 -61 -9 -105 -15
-144 -20 -266 -41 -430 -72 -137 -25 -127 -23 -210 -42 -38 -9 -81 -18 -95
-20 -14 -2 -56 -12 -95 -21 -38 -9 -77 -18 -85 -20 -8 -2 -69 -17 -135 -35
-66 -17 -129 -33 -139 -36 -10 -2 -33 -8 -51 -14 -18 -6 -41 -12 -51 -15 -10
-2 -38 -10 -62 -19 -23 -8 -46 -15 -50 -15 -23 -1 -422 -133 -595 -197 -319
-119 -692 -280 -972 -422 -229 -116 -473 -248 -570 -309 -11 -7 -33 -20 -50
-29 -92 -51 -563 -355 -630 -407 -5 -4 -39 -29 -75 -54 -133 -96 -218 -160
-335 -252 -119 -94 -326 -264 -355 -292 -8 -8 -46 -41 -85 -74 -38 -33 -76
-67 -85 -75 -33 -30 -303 -285 -314 -296 -113 -115 -307 -318 -361 -378 -38
-43 -85 -95 -104 -115 -18 -20 -47 -53 -65 -75 -17 -21 -40 -48 -51 -60 -11
-12 -38 -44 -60 -71 -21 -28 -49 -61 -61 -75 -29 -33 -97 -119 -159 -200 -27
-36 -52 -67 -55 -70 -3 -3 -35 -45 -70 -95 -36 -49 -67 -92 -71 -95 -3 -3 -25
-34 -49 -70 -24 -36 -46 -67 -50 -70 -8 -7 -215 -321 -230 -350 -7 -14 -16
-27 -20 -30 -3 -3 -21 -30 -39 -60 -18 -30 -55 -93 -83 -140 -77 -128 -158
-272 -239 -425 -41 -77 -182 -357 -184 -365 -1 -3 -13 -30 -27 -60 -14 -30
-38 -82 -53 -115 -15 -33 -37 -82 -50 -110 -66 -144 -189 -457 -252 -640 -18
-55 -37 -107 -40 -115 -3 -8 -7 -19 -9 -25 -2 -5 -31 -98 -64 -205 -87 -276
-198 -700 -234 -890 -2 -14 -18 -96 -35 -184 -17 -87 -33 -173 -35 -192 -2
-18 -9 -57 -15 -86 -5 -29 -12 -73 -15 -98 -3 -25 -7 -56 -10 -70 -2 -14 -8
-52 -11 -85 -4 -33 -9 -71 -11 -85 -2 -14 -5 -47 -9 -75 -3 -27 -7 -63 -9 -80
-3 -16 -7 -61 -10 -100 -3 -38 -9 -97 -12 -130 -21 -230 -29 -455 -29 -820 0
-421 11 -636 49 -1015 11 -100 17 -158 21 -185 3 -16 7 -52 10 -80 3 -27 8
-61 10 -75 3 -14 7 -43 10 -65 4 -22 10 -65 15 -95 5 -30 12 -70 15 -87 3 -18
7 -48 10 -65 5 -31 41 -218 51 -263 2 -10 6 -37 10 -59 3 -22 11 -49 16 -61 6
-11 10 -20 8 -20 -11 0 78 -362 151 -615 186 -645 485 -1372 789 -1920 29 -52
66 -119 82 -149 114 -205 276 -463 486 -771 70 -103 356 -488 371 -500 4 -3
41 -48 83 -100 42 -52 90 -111 108 -130 17 -19 45 -52 62 -72 16 -20 40 -48
51 -61 12 -13 60 -65 107 -117 135 -147 136 -149 265 -280 140 -142 261 -259
390 -375 48 -44 95 -87 104 -95 36 -34 281 -240 351 -296 41 -32 80 -63 87
-69 7 -5 18 -15 25 -20 7 -6 49 -38 93 -70 44 -33 82 -62 85 -65 18 -21 507
-357 605 -417 11 -7 81 -49 155 -95 74 -46 155 -94 180 -107 25 -13 52 -30 61
-37 8 -8 19 -14 23 -14 4 0 38 -17 74 -39 158 -91 695 -361 718 -361 2 0 27
-11 56 -24 292 -132 748 -304 1025 -387 35 -11 93 -28 130 -40 209 -64 581
-159 808 -205 11 -2 31 -6 45 -9 77 -16 251 -47 360 -65 125 -21 142 -24 235
-36 28 -3 57 -8 65 -9 8 -2 42 -6 75 -9 33 -4 98 -11 145 -17 123 -14 165 -18
260 -25 47 -3 101 -7 120 -9 265 -26 1167 -26 1400 0 19 2 69 6 110 9 103 8
158 14 350 37 91 11 185 22 210 25 39 4 234 36 295 48 11 2 42 7 68 10 27 4
56 9 65 11 143 29 281 57 297 61 33 8 108 24 138 30 15 3 130 32 255 66 125
33 232 61 237 62 6 2 21 8 35 13 14 6 41 14 60 18 39 8 497 159 545 180 17 7
75 29 130 50 55 20 114 43 130 50 17 8 55 23 85 35 30 12 69 28 85 35 17 7 66
29 110 48 133 58 452 206 485 226 8 5 53 29 100 52 47 24 117 61 155 82 39 21
99 55 135 75 158 87 655 393 705 435 6 4 84 60 175 124 91 64 170 122 177 127
17 15 32 26 78 60 44 33 227 177 235 186 3 3 21 17 42 32 20 15 42 33 50 40 7
7 42 38 78 68 98 84 121 103 146 126 13 12 58 52 100 90 232 208 549 529 758
769 43 50 91 104 105 120 60 67 253 308 342 425 612 806 1078 1665 1419 2615
58 162 178 538 186 580 2 12 40 147 53 190 14 43 82 332 116 490 7 33 24 118
30 150 40 227 65 378 70 415 3 25 8 56 10 70 3 14 7 43 10 65 2 22 6 56 9 75
9 67 16 125 21 185 3 33 7 76 10 95 2 19 7 69 10 110 3 41 8 98 10 125 20 253
27 966 11 1215 -4 63 -9 142 -10 175 -2 33 -7 87 -10 120 -3 33 -8 87 -11 120
-3 33 -7 76 -10 95 -2 19 -7 60 -10 90 -5 53 -22 189 -30 240 -2 14 -9 61 -15
105 -6 44 -15 103 -20 130 -31 164 -43 232 -47 259 -7 50 -91 426 -118 533
-173 671 -406 1302 -699 1893 -23 47 -48 96 -56 110 -8 14 -15 30 -16 35 -3
17 -212 393 -288 518 -39 65 -75 126 -81 135 -46 78 -225 351 -320 487 -55 79
-304 414 -320 431 -5 6 -23 28 -40 49 -307 392 -778 887 -1165 1225 -41 36
-82 72 -90 80 -8 8 -40 36 -70 60 -30 25 -60 49 -66 55 -6 5 -25 21 -43 35
-18 14 -38 30 -44 36 -60 53 -381 297 -522 396 -27 19 -78 54 -113 79 -35 24
-71 49 -80 54 -9 6 -69 45 -132 86 -108 71 -366 229 -455 279 -270 152 -588
315 -785 404 -237 107 -529 227 -700 288 -327 116 -573 194 -845 267 -172 46
-494 122 -570 134 -16 3 -66 13 -110 21 -44 9 -91 18 -105 21 -13 2 -42 7 -65
11 -22 3 -62 10 -90 15 -27 5 -79 14 -115 19 -120 17 -165 23 -185 25 -11 1
-40 5 -65 8 -25 4 -65 9 -90 12 -25 2 -63 7 -85 9 -39 5 -121 12 -228 21 -162
13 -219 17 -282 21 -76 6 -902 13 -907 9z"/>
</g>
</svg>
