<?xml version="1.0" standalone="no"?>
<!DOCTYPE svg PUBLIC "-//W3C//DTD SVG 20010904//EN"
 "http://www.w3.org/TR/2001/REC-SVG-20010904/DTD/svg10.dtd">
<svg version="1.0" xmlns="http://www.w3.org/2000/svg"
 width="1211.000000pt" height="229.000000pt" viewBox="0 0 1211.000000 229.000000"
 preserveAspectRatio="xMidYMid meet">

<g transform="translate(0.000000,229.000000) scale(0.100000,-0.100000)"
fill="#000000" stroke="none">
<path d="M2942 1761 c-200 -74 -322 -242 -322 -443 0 -122 39 -222 120 -311
101 -110 205 -157 350 -157 188 0 338 95 422 269 30 60 33 75 36 179 3 99 1
122 -19 175 -46 125 -121 208 -239 265 -70 34 -82 37 -185 39 -90 3 -120 0
-163 -16z m203 -235 c17 -12 17 -19 7 -102 -7 -49 -16 -127 -22 -174 -18 -148
-33 -176 -85 -152 l-26 12 7 92 c3 51 12 128 20 172 8 43 14 91 14 106 0 51
45 76 85 46z m-205 -46 c29 -29 25 -42 -30 -100 -27 -29 -50 -57 -50 -63 0 -5
23 -34 50 -63 28 -29 50 -60 50 -68 0 -21 -31 -56 -50 -56 -8 0 -50 35 -92 77
-104 103 -104 112 -2 216 42 42 83 77 90 77 8 0 23 -9 34 -20z m423 -59 c101
-104 101 -109 -3 -215 l-79 -81 -28 15 c-46 26 -42 57 17 115 27 27 50 55 50
61 0 7 -22 34 -50 60 -32 30 -50 56 -50 70 0 22 33 54 55 54 7 0 46 -35 88
-79z"/>
<path d="M931 1708 c-4 -13 -99 -273 -211 -578 -111 -305 -213 -583 -226 -617
l-23 -63 27 0 c27 0 30 9 241 589 117 324 217 594 221 600 4 7 105 -258 226
-589 201 -550 221 -600 242 -600 12 0 22 3 22 8 0 4 -103 291 -228 637 -220
607 -230 630 -255 633 -21 3 -29 -2 -36 -20z"/>
<path d="M1640 1090 l0 -640 450 0 450 0 0 25 0 25 -425 0 -425 0 0 615 0 615
-25 0 -25 0 0 -640z"/>
<path d="M4057 1415 c-120 -174 -217 -322 -215 -329 2 -8 100 -154 218 -325
195 -283 218 -311 243 -311 20 0 26 4 21 13 -5 6 -104 150 -222 320 l-213 308
202 292 c111 160 211 304 221 320 l19 27 -28 0 c-26 0 -47 -27 -246 -315z"/>
<path d="M5310 1716 c-60 -16 -109 -47 -155 -97 -60 -67 -80 -121 -80 -219 0
-109 26 -169 101 -240 84 -79 99 -83 329 -90 173 -5 206 -9 246 -26 110 -50
169 -141 169 -258 -1 -113 -56 -206 -155 -259 -38 -21 -54 -22 -367 -25 l-328
-3 0 -25 0 -24 298 0 c334 0 382 7 461 64 98 70 148 175 139 290 -8 90 -41
157 -108 219 -82 76 -123 87 -324 87 -185 0 -240 11 -308 63 -23 18 -56 55
-73 82 -28 45 -30 56 -30 139 0 68 5 100 18 128 27 54 83 107 141 134 50 23
58 24 329 24 l277 0 0 25 0 25 -267 -1 c-178 0 -283 -4 -313 -13z"/>
<path d="M6160 1090 l0 -640 25 0 25 0 0 310 0 310 438 -2 437 -3 3 -307 2
-308 25 0 25 0 0 640 0 640 -25 0 -25 0 0 -310 0 -310 -440 0 -440 0 0 310 0
310 -25 0 -25 0 0 -640z"/>
<path d="M7565 1103 c-126 -346 -230 -634 -233 -641 -3 -7 5 -12 20 -12 24 0
35 28 244 599 120 330 221 597 224 595 3 -3 102 -272 222 -597 206 -565 217
-592 242 -595 l26 -3 -28 78 c-16 43 -120 331 -233 640 -198 546 -205 563
-230 563 -25 0 -32 -18 -254 -627z"/>
<path d="M8500 1706 l0 -26 318 0 c358 0 360 -1 445 -79 66 -61 90 -125 85
-223 -5 -91 -37 -152 -106 -205 -76 -58 -112 -63 -444 -63 -291 0 -298 0 -298
-20 0 -19 8 -20 312 -22 l312 -3 112 -305 c107 -293 113 -305 139 -308 23 -3
27 -1 21 15 -32 80 -225 616 -224 617 39 13 107 59 139 93 64 69 84 123 84
223 0 66 -5 96 -22 132 -30 66 -96 133 -162 165 l-56 28 -327 3 -328 3 0 -25z"/>
<path d="M9591 1722 c2 -5 108 -293 234 -640 223 -613 231 -632 256 -632 25 0
32 16 230 558 l204 557 3 -557 2 -558 25 0 25 0 0 640 0 640 -23 0 c-22 0 -38
-39 -243 -599 -120 -330 -221 -597 -224 -595 -2 3 -102 272 -221 597 -211 577
-217 592 -244 595 -15 2 -26 -1 -24 -6z"/>
<path d="M10992 1096 c-128 -349 -232 -637 -232 -640 0 -3 11 -6 24 -6 22 0
37 39 242 600 120 329 221 597 223 594 3 -3 103 -271 222 -597 208 -567 218
-592 243 -595 l26 -3 -23 63 c-13 35 -118 323 -233 640 -203 562 -210 578
-235 578 -25 0 -32 -17 -257 -634z"/>
<path d="M2545 860 c-38 -38 -66 -72 -62 -76 3 -4 39 -21 79 -38 l73 -31 40
-82 c21 -46 44 -83 50 -83 6 0 50 40 98 88 96 96 101 114 41 131 -41 11 -158
88 -198 130 -17 17 -35 31 -41 31 -6 0 -42 -31 -80 -70z"/>
<path d="M3495 888 c-47 -49 -130 -104 -182 -121 -21 -6 -39 -19 -41 -28 -3
-17 161 -184 181 -184 6 0 17 11 23 25 24 48 44 98 44 109 0 12 75 52 132 70
21 7 41 17 44 23 8 13 -125 148 -146 147 -8 0 -33 -19 -55 -41z"/>
</g>
</svg>
