<svg version="1.1" id="Layer_1" xmlns="http://www.w3.org/2000/svg" xmlns:xlink="http://www.w3.org/1999/xlink" x="0px" y="0px"
	 width="100%" viewBox="0 0 269 326" enable-background="new 0 0 269 326" xml:space="preserve">
<path fill="#000000" opacity="1.000000" stroke="none" 
	d="
M270.000000,159.000000 
	C270.000000,214.959625 270.000000,270.919250 270.000000,326.939453 
	C180.438385,326.939453 90.876732,326.939453 1.000000,326.939453 
	C1.000000,270.646149 1.000000,214.291733 1.322813,157.208588 
	C2.130799,157.646500 2.615971,158.813156 3.074329,160.381836 
	C4.743624,166.843567 6.439732,172.903275 8.183149,179.314590 
	C11.819670,184.737701 15.408878,189.809174 19.313902,195.029266 
	C24.350130,199.208878 29.387608,202.465240 36.239262,201.936279 
	C36.480072,201.995071 36.969021,202.077072 37.161194,202.469818 
	C45.110924,202.909592 52.868595,202.986267 60.625854,202.956558 
	C61.379654,202.953659 62.130939,202.293518 62.960606,201.479340 
	C62.976643,190.349457 62.915466,179.678711 62.911438,168.610336 
	C66.115074,151.261642 76.236649,140.268280 92.467148,134.090515 
	C95.279648,133.637344 97.689186,133.242279 100.559479,132.902069 
	C123.661469,132.925201 146.302689,132.893448 169.349396,132.891388 
	C170.688034,132.627823 171.613983,132.105286 172.555450,132.075623 
	C187.308182,131.610779 200.811249,115.418472 200.466919,101.834229 
	C200.914871,79.733047 200.975372,57.818089 200.977982,35.903130 
	C200.978058,35.245869 200.371979,34.588531 200.051437,33.570129 
	C199.744110,32.128151 199.433838,31.047272 199.087738,29.584234 
	C196.754181,25.119167 194.456451,21.036257 192.015930,16.640362 
	C186.957703,13.199761 182.042267,10.072145 176.927795,6.621012 
	C170.149780,5.254140 163.570786,4.210785 156.655106,2.973111 
	C156.212280,2.185862 156.106140,1.592931 156.000000,1.000000 
	C193.928528,1.000000 231.857056,1.000000 270.000000,1.000000 
	C270.000000,40.353970 270.000000,79.708328 269.717987,119.810028 
	C269.235016,120.385651 269.034088,120.213936 268.901123,119.642044 
	C268.257294,116.160820 267.545471,113.079788 266.903320,109.620216 
	C266.259644,107.160828 265.546295,105.079979 264.906738,102.626022 
	C264.359558,100.488838 263.738556,98.724747 263.068176,96.592163 
	C262.294220,94.484947 261.569641,92.746231 260.919739,90.652519 
	C259.608795,88.199478 258.223114,86.101425 256.823853,83.657944 
	C253.894379,80.505142 250.978470,77.697792 247.900055,74.558273 
	C243.861267,73.135658 239.984970,72.045212 235.891388,70.569351 
	C226.489166,70.183945 217.304245,70.183945 208.173019,70.183945 
	C208.173019,80.755592 208.173019,90.841949 208.092438,101.262177 
	C207.967865,102.050995 207.923859,102.505943 207.530594,103.156357 
	C205.743057,108.552284 204.304779,113.752739 202.636139,119.014664 
	C202.113815,119.261459 201.957001,119.526672 201.638062,119.993324 
	C201.184769,120.722580 201.028702,121.330299 200.559784,122.074066 
	C194.485580,130.564621 186.269760,135.488220 176.558182,138.922424 
	C174.430847,139.370026 172.699066,139.769150 170.505539,140.098557 
	C146.017517,140.071136 121.991249,140.113449 97.583527,140.090363 
	C82.414429,144.269547 72.639008,153.200714 70.075645,169.419342 
	C70.049873,193.288437 70.104462,216.688644 70.223633,240.441528 
	C71.154060,242.885437 72.019913,244.976639 72.925468,247.429077 
	C75.962822,251.231415 78.960464,254.672531 82.092484,258.434875 
	C86.484077,261.115234 90.741295,263.474335 95.344940,266.003540 
	C100.445251,267.488678 105.199120,268.803772 110.075172,270.407288 
	C110.798775,270.746643 111.400192,270.797516 112.329895,270.924408 
	C113.101913,270.950867 113.545647,270.901276 114.361687,271.030945 
	C123.697136,271.809326 132.661087,272.909302 141.623215,272.894470 
	C156.418228,272.869965 170.578064,269.388672 183.478638,262.046570 
	C192.684860,256.807068 199.916718,249.736099 200.498856,237.822372 
	C200.917801,229.898102 201.005981,222.186005 200.952377,214.474884 
	C200.942398,213.039108 200.362671,211.607300 199.578812,210.104797 
	C179.720840,210.027390 160.329849,210.040131 140.939148,209.973251 
	C139.233276,209.967361 137.529221,209.440186 135.902832,208.730194 
	C135.932007,206.869690 135.882690,205.434113 135.908051,203.793564 
	C135.982727,203.588593 136.015320,203.153503 136.481247,203.083557 
	C168.306046,203.008575 199.664932,203.017136 231.023712,202.960754 
	C232.696747,202.957748 234.368820,202.407547 236.460983,202.063538 
	C242.736252,202.182739 247.675720,199.841187 251.615372,195.799637 
	C260.487701,186.697876 264.243713,175.062363 267.458191,162.857208 
	C268.534393,161.436722 269.267181,160.218369 270.000000,159.000000 
z"/>
<path fill="#000000" opacity="1.000000" stroke="none" 
	d="
M0.999999,115.000000 
	C1.000000,77.075363 1.000000,39.150730 1.000000,1.000000 
	C36.353905,1.000000 71.708298,1.000000 107.923370,1.086511 
	C108.759125,1.439500 108.734184,1.705977 108.382919,2.199874 
	C101.187065,4.228297 94.290215,5.931968 87.453903,7.851291 
	C74.633873,11.450566 70.945038,20.127409 70.047836,32.461472 
	C70.024498,42.617630 70.079430,52.308300 70.248917,62.422340 
	C91.878860,62.900051 113.394234,62.954388 134.944611,63.436905 
	C134.983429,65.866386 134.987244,67.867699 134.526871,69.933563 
	C103.719673,70.048256 73.376663,70.098389 42.768963,70.126015 
	C42.310589,70.386162 42.116905,70.668816 41.959770,70.951706 
	C41.996319,70.951935 41.946938,70.898048 41.605438,70.827591 
	C27.702841,71.470787 17.178490,78.109627 10.584642,89.375130 
	C6.609020,96.167435 5.473072,104.612030 2.955916,112.279633 
	C2.623764,113.291412 1.667313,114.098244 0.999999,115.000000 
z"/>
<path fill="#FFDC50" opacity="1.000000" stroke="none" 
	d="
M268.833160,120.042229 
	C269.034088,120.213936 269.235016,120.385651 269.717987,120.278687 
	C270.000000,123.692909 270.000000,127.385826 269.628113,131.551605 
	C267.469818,132.830734 265.512451,133.389404 263.925995,134.485092 
	C256.016449,139.947723 248.193481,145.536102 240.360153,151.108521 
	C218.617340,166.575775 196.866699,182.032257 175.189804,197.591415 
	C173.819656,198.574890 173.054779,200.401596 171.543274,201.898132 
	C165.387939,201.918488 159.697662,201.876709 154.068527,201.504410 
	C155.184097,199.928558 156.046738,198.422684 157.325195,197.481705 
	C163.862625,192.669922 170.512070,188.010498 177.113663,183.285660 
	C204.331253,163.805725 231.510757,144.272110 258.811157,124.908936 
	C261.799225,122.789589 265.475891,121.641045 268.833160,120.042229 
z"/>
<path fill="#4584B6" opacity="1.000000" stroke="none" 
	d="
M3.101141,159.979797 
	C2.615971,158.813156 2.130799,157.646500 1.322813,156.739929 
	C1.000000,151.645065 1.000000,146.290146 1.348765,140.416489 
	C4.589194,137.256790 7.786190,134.878586 10.322319,131.931625 
	C25.310005,114.516197 40.191330,97.008270 54.975582,79.419800 
	C57.029423,76.976402 58.349724,73.916420 60.475285,71.100250 
	C66.630707,71.084564 72.320442,71.110497 77.949699,71.476334 
	C70.907433,80.396217 64.011017,89.047478 56.921955,97.537895 
	C48.324711,107.834648 39.622154,118.045074 30.859459,128.201660 
	C21.671928,138.850662 12.359168,149.391617 3.101141,159.979797 
z"/>
<path fill="#4280B2" opacity="1.000000" stroke="none" 
	d="
M155.536819,1.000000 
	C156.106140,1.592931 156.212280,2.185862 156.594635,3.303600 
	C144.845352,18.120880 132.727249,32.337021 120.846748,46.749031 
	C116.918350,51.514500 113.602448,56.784866 109.541458,61.889900 
	C101.721596,61.911629 94.366791,61.867844 87.068298,61.487206 
	C88.407623,59.275524 89.643608,57.366299 90.984100,55.533520 
	C93.285835,52.386513 95.652809,49.287220 98.367249,46.096123 
	C107.442932,43.531342 109.790710,40.424660 110.340866,30.791639 
	C114.969543,25.684612 119.098877,20.533188 123.793846,15.962836 
	C129.618164,10.293100 132.814011,1.098698 143.000000,1.000000 
	C147.024551,1.000000 151.049088,1.000000 155.536819,1.000000 
z"/>
<path fill="#FFD949" opacity="1.000000" stroke="none" 
	d="
M172.008331,201.835999 
	C173.054779,200.401596 173.819656,198.574890 175.189804,197.591415 
	C196.866699,182.032257 218.617340,166.575775 240.360153,151.108521 
	C248.193481,145.536102 256.016449,139.947723 263.925995,134.485092 
	C265.512451,133.389404 267.469818,132.830734 269.628113,132.012238 
	C270.000000,136.689255 270.000000,141.378510 269.740601,146.326721 
	C267.961151,146.581406 266.082764,145.997131 264.984589,146.675674 
	C260.761078,149.285278 256.775635,152.282700 252.722595,155.165237 
	C232.999207,169.192520 213.261459,183.199890 193.605652,197.321289 
	C192.100586,198.402573 191.191650,200.313644 189.540771,201.901031 
	C183.386734,201.920700 177.697540,201.878357 172.008331,201.835999 
z"/>
<path fill="#4887BA" opacity="1.000000" stroke="none" 
	d="
M60.009602,71.141869 
	C58.349724,73.916420 57.029423,76.976402 54.975582,79.419800 
	C40.191330,97.008270 25.310005,114.516197 10.322319,131.931625 
	C7.786190,134.878586 4.589194,137.256790 1.348765,139.948883 
	C1.000000,132.979050 1.000000,125.958107 1.361708,118.435776 
	C4.046364,116.214470 6.766070,114.841782 8.625955,112.716606 
	C18.500759,101.433296 28.233612,90.022629 37.828140,78.499954 
	C39.636318,76.328400 40.595821,73.450180 41.946938,70.898048 
	C41.946938,70.898048 41.996319,70.951935 42.234081,70.970047 
	C42.654503,70.989441 42.837158,70.990723 43.486004,71.006516 
	C49.304665,71.061310 54.657131,71.101585 60.009602,71.141869 
z"/>
<path fill="#FFD744" opacity="1.000000" stroke="none" 
	d="
M190.005615,201.839020 
	C191.191650,200.313644 192.100586,198.402573 193.605652,197.321289 
	C213.261459,183.199890 232.999207,169.192520 252.722595,155.165237 
	C256.775635,152.282700 260.761078,149.285278 264.984589,146.675674 
	C266.082764,145.997131 267.961151,146.581406 269.740601,146.792847 
	C270.000000,149.041672 270.000000,151.083328 269.625793,153.568268 
	C267.004639,155.022583 264.522369,155.700653 262.547241,157.096359 
	C243.576187,170.502060 224.673050,184.004303 205.813980,197.567215 
	C204.302307,198.654373 203.263184,200.398605 201.547028,201.899475 
	C197.394958,201.920654 193.700287,201.879837 190.005615,201.839020 
z"/>
<path fill="#4C8CBE" opacity="1.000000" stroke="none" 
	d="
M41.605438,70.827591 
	C40.595821,73.450180 39.636318,76.328400 37.828140,78.499954 
	C28.233612,90.022629 18.500759,101.433296 8.625955,112.716606 
	C6.766070,114.841782 4.046364,116.214470 1.361708,117.967194 
	C1.000000,117.250000 1.000000,116.500000 0.999999,115.375000 
	C1.667313,114.098244 2.623764,113.291412 2.955916,112.279633 
	C5.473072,104.612030 6.609020,96.167435 10.584642,89.375130 
	C17.178490,78.109627 27.702841,71.470787 41.605438,70.827591 
z"/>
<path fill="#4785B7" opacity="1.000000" stroke="none" 
	d="
M142.531342,1.000000 
	C132.814011,1.098698 129.618164,10.293100 123.793846,15.962836 
	C119.098877,20.533188 114.969543,25.684612 110.255608,30.440536 
	C108.147697,24.991352 104.052910,22.359173 98.998909,20.465458 
	C100.601906,17.294638 102.094810,14.429524 103.828384,11.718291 
	C105.758484,8.699698 107.907639,5.821167 110.143967,2.614072 
	C111.217659,1.897651 112.108826,1.448825 113.000000,0.999999 
	C122.687561,1.000000 132.375122,1.000000 142.531342,1.000000 
z"/>
<path fill="#FFD640" opacity="1.000000" stroke="none" 
	d="
M202.004456,201.837463 
	C203.263184,200.398605 204.302307,198.654373 205.813980,197.567215 
	C224.673050,184.004303 243.576187,170.502060 262.547241,157.096359 
	C264.522369,155.700653 267.004639,155.022583 269.625793,154.005768 
	C270.000000,155.388885 270.000000,156.777786 270.000000,158.583344 
	C269.267181,160.218369 268.534393,161.436722 267.063232,162.845337 
	C264.207733,163.821045 261.809418,164.204102 260.018005,165.455795 
	C246.213486,175.101334 232.483826,184.856094 218.838165,194.725235 
	C215.997757,196.779541 213.603485,199.450684 210.556976,201.899994 
	C207.408371,201.920776 204.706406,201.879120 202.004456,201.837463 
z"/>
<path fill="#000000" opacity="1.000000" stroke="none" 
	d="
M112.600006,0.999999 
	C112.108826,1.448825 111.217659,1.897651 109.851974,2.582930 
	C109.108284,2.536584 108.839096,2.253785 108.460983,1.632362 
	C108.568031,1.195826 108.784019,1.097913 109.000000,1.000000 
	C110.066673,1.000000 111.133339,1.000000 112.600006,0.999999 
z"/>
<path fill="#4785B7" opacity="1.000000" stroke="none" 
	d="
M108.750000,1.000000 
	C108.784019,1.097913 108.568031,1.195826 108.494843,1.628736 
	C108.637650,1.963734 108.709236,1.972454 108.709236,1.972454 
	C108.734184,1.705977 108.759125,1.439500 108.392029,1.086511 
	C108.000000,1.000000 108.500000,1.000000 108.750000,1.000000 
z"/>
<path fill="#3B77A7" opacity="1.000000" stroke="none" 
	d="
M134.991058,69.869003 
	C134.987244,67.867699 134.983429,65.866386 134.818085,63.090572 
	C133.439957,62.152512 132.223373,61.988960 131.069290,61.493088 
	C132.666107,59.029037 134.069778,56.787338 135.756577,54.784004 
	C144.570602,44.315910 153.407913,33.866467 162.336945,23.496506 
	C167.163956,17.890532 172.190384,12.456263 177.126831,6.944530 
	C182.042267,10.072145 186.957703,13.199761 191.665039,16.699574 
	C185.132065,23.790682 178.561340,30.297157 172.533798,37.272968 
	C160.189102,51.559811 148.186188,66.141312 135.948700,80.521629 
	C123.600624,95.031891 111.068939,109.386414 98.783226,123.948822 
	C96.176262,127.038895 94.285118,130.732880 92.064178,134.148621 
	C76.236649,140.268280 66.115074,151.261642 62.681427,168.712509 
	C62.191975,169.477478 61.989681,169.742661 61.461037,170.071152 
	C60.089073,170.925140 58.854443,171.555725 58.027710,172.531784 
	C51.294510,180.481171 44.565762,188.437195 38.025742,196.544540 
	C36.890652,197.951660 36.651451,200.081467 35.998451,201.877472 
	C29.387608,202.465240 24.350130,199.208878 19.319717,194.654831 
	C19.714817,192.515579 20.092764,190.627518 21.175188,189.324829 
	C33.153851,174.908585 45.154999,160.509109 57.320473,146.250488 
	C75.734795,124.667854 94.327896,103.237724 112.728615,81.643578 
	C115.480209,78.414452 117.598183,74.645401 120.472260,71.080933 
	C125.620522,70.646828 130.305786,70.257919 134.991058,69.869003 
z"/>
<path fill="#FFE872" opacity="1.000000" stroke="none" 
	d="
M70.155991,168.950455 
	C72.639008,153.200714 82.414429,144.269547 97.919823,140.340210 
	C100.452431,140.771698 102.267059,140.984726 104.082199,140.989120 
	C121.391731,141.031052 138.701340,141.037674 155.950745,141.392899 
	C154.784348,142.906174 153.834366,144.298019 152.548721,145.223526 
	C130.336121,161.213867 108.124840,177.206924 85.802620,193.043427 
	C81.133942,196.355621 76.022644,199.043930 71.084320,201.550018 
	C71.045265,194.279205 71.135345,187.476059 70.991417,180.677856 
	C70.908562,176.764587 70.447052,172.859329 70.155991,168.950455 
z"/>
<path fill="#3F7CAD" opacity="1.000000" stroke="none" 
	d="
M120.009277,71.126129 
	C117.598183,74.645401 115.480209,78.414452 112.728615,81.643578 
	C94.327896,103.237724 75.734795,124.667854 57.320473,146.250488 
	C45.154999,160.509109 33.153851,174.908585 21.175188,189.324829 
	C20.092764,190.627518 19.714817,192.515579 19.003902,194.506226 
	C15.408878,189.809174 11.819670,184.737701 8.399834,179.067261 
	C9.558487,176.966766 10.399133,175.337708 11.560650,173.983978 
	C20.504324,163.560303 29.561735,153.234085 38.485214,142.793304 
	C53.317337,125.439178 68.148361,108.083008 82.826927,90.599319 
	C88.114937,84.300743 92.962067,77.632011 98.476509,71.088776 
	C105.964836,71.072266 112.987061,71.099197 120.009277,71.126129 
z"/>
<path fill="#FFD53D" opacity="1.000000" stroke="none" 
	d="
M200.119141,238.034882 
	C199.916718,249.736099 192.684860,256.807068 183.478638,262.046570 
	C170.578064,269.388672 156.418228,272.869965 141.623215,272.894470 
	C132.661087,272.909302 123.697136,271.809326 114.195953,270.856934 
	C113.105797,270.618561 112.553703,270.733490 112.001610,270.848389 
	C111.400192,270.797516 110.798775,270.746643 110.235474,270.105011 
	C110.811813,268.881287 111.249855,268.110535 111.902962,267.635468 
	C126.409599,257.083069 140.904892,246.513672 155.553421,236.161316 
	C156.427948,235.543274 158.565369,236.712250 160.064789,237.465240 
	C160.010101,238.378952 159.988678,238.877640 160.004059,239.375198 
	C160.167038,244.642532 163.968887,250.067352 168.125351,250.972214 
	C173.827591,252.213593 179.371201,249.809799 182.001617,244.955246 
	C184.400406,240.528122 183.335220,234.295319 179.111893,230.771545 
	C177.069641,229.067612 174.392624,228.124466 172.016602,226.480865 
	C173.186111,224.648880 174.158493,222.968338 175.532501,221.735397 
	C179.605164,218.080826 183.836197,214.602737 188.463074,211.017670 
	C192.587906,211.012634 196.254944,211.045578 199.955841,211.540527 
	C200.032852,220.679977 200.075989,229.357422 200.119141,238.034882 
z"/>
<path fill="#316A99" opacity="1.000000" stroke="none" 
	d="
M200.070999,102.020462 
	C200.811249,115.418472 187.308182,131.610779 172.555450,132.075623 
	C171.613983,132.105286 170.688034,132.627823 169.100586,132.549683 
	C158.298782,132.071411 148.151276,131.964569 138.016205,131.502869 
	C138.613785,129.993805 139.002930,128.674545 139.814514,127.711121 
	C147.504944,118.581902 155.295685,109.537239 163.001831,100.421165 
	C173.489075,88.015213 183.883865,75.530724 194.437805,63.182041 
	C195.884979,61.488762 198.019745,60.383152 199.902451,59.469589 
	C200.002823,73.962631 200.036911,87.991547 200.070999,102.020462 
z"/>
<path fill="#3772A2" opacity="1.000000" stroke="none" 
	d="
M92.467148,134.090515 
	C94.285118,130.732880 96.176262,127.038895 98.783226,123.948822 
	C111.068939,109.386414 123.600624,95.031891 135.948700,80.521629 
	C148.186188,66.141312 160.189102,51.559811 172.533798,37.272968 
	C178.561340,30.297157 185.132065,23.790682 191.807816,17.012558 
	C194.456451,21.036257 196.754181,25.119167 198.738739,29.639896 
	C196.879501,31.289371 195.092621,32.291191 193.825195,33.745655 
	C183.058914,46.100765 172.343613,58.501019 161.697632,70.960037 
	C146.753876,88.448761 131.835373,105.959724 117.035126,123.569633 
	C114.980362,126.014473 113.662399,129.078537 111.552902,131.927185 
	C107.434547,132.281342 103.766632,132.564270 100.098724,132.847198 
	C97.689186,133.242279 95.279648,133.637344 92.467148,134.090515 
z"/>
<path fill="#4280B2" opacity="1.000000" stroke="none" 
	d="
M98.010399,71.132210 
	C92.962067,77.632011 88.114937,84.300743 82.826927,90.599319 
	C68.148361,108.083008 53.317337,125.439178 38.485214,142.793304 
	C29.561735,153.234085 20.504324,163.560303 11.560650,173.983978 
	C10.399133,175.337708 9.558487,176.966766 8.352524,178.715637 
	C6.439732,172.903275 4.743624,166.843567 3.074328,160.381836 
	C12.359168,149.391617 21.671928,138.850662 30.859459,128.201660 
	C39.622154,118.045074 48.324711,107.834648 56.921955,97.537895 
	C64.011017,89.047478 70.907433,80.396217 78.415741,71.434067 
	C85.298309,71.078674 91.654350,71.105446 98.010399,71.132210 
z"/>
<path fill="#FFE366" opacity="1.000000" stroke="none" 
	d="
M201.935303,119.871780 
	C201.957001,119.526672 202.113815,119.261459 202.975433,118.892822 
	C205.361481,117.922874 207.381577,117.423889 208.962189,116.304390 
	C222.318344,106.844643 235.550171,97.208923 248.935638,87.791374 
	C251.291687,86.133720 254.189728,85.246437 256.837463,84.003387 
	C258.223114,86.101425 259.608795,88.199478 260.563538,90.664680 
	C258.254333,92.038940 256.239075,92.853996 254.518127,94.081642 
	C222.854980,116.668930 191.232925,139.313797 159.589706,161.929062 
	C136.194595,178.649414 112.814880,195.391754 89.353394,212.018585 
	C83.420853,216.222885 77.201927,220.023056 71.081787,223.559113 
	C71.070633,220.409622 71.092293,217.709991 71.456688,214.950516 
	C73.102928,214.181183 74.497520,213.599289 75.696594,212.743469 
	C102.861519,193.354523 130.051331,173.999756 157.120163,154.477341 
	C163.936829,149.561096 170.353348,144.090027 176.953751,138.873932 
	C186.269760,135.488220 194.485580,130.564621 200.807953,121.894302 
	C201.557739,121.009590 201.746521,120.440681 201.935303,119.871780 
z"/>
<path fill="#FFDF5B" opacity="1.000000" stroke="none" 
	d="
M136.015320,203.153503 
	C136.015320,203.153503 135.982727,203.588593 135.565979,203.854568 
	C133.512085,204.907669 131.721588,205.478958 130.261948,206.515945 
	C118.142845,215.126068 106.116478,223.866776 93.996185,232.475220 
	C87.022476,237.428284 79.926620,242.209351 72.885757,247.067841 
	C72.019913,244.976639 71.154060,242.885437 70.443085,240.307602 
	C70.807266,239.551834 71.016563,239.282684 71.560577,238.946930 
	C72.655800,238.546158 73.502525,238.332794 74.164391,237.860428 
	C100.402840,219.133682 126.623894,200.382568 152.848495,181.636444 
	C188.670715,156.029648 224.487106,130.414642 260.344879,104.857681 
	C261.629761,103.941910 263.327576,103.605522 264.832947,102.999115 
	C265.546295,105.079979 266.259644,107.160828 266.561218,109.681152 
	C264.244476,111.117119 262.192810,111.907333 260.457214,113.141914 
	C242.478790,125.930382 224.565353,138.810135 206.606079,151.625610 
	C185.136047,166.946304 163.620926,182.203964 142.195572,197.586746 
	C140.823456,198.571884 140.055161,200.398026 138.691223,201.888931 
	C137.589417,202.347778 136.802368,202.750641 136.015320,203.153503 
z"/>
<path fill="#FFE262" opacity="1.000000" stroke="none" 
	d="
M71.114601,224.008942 
	C77.201927,220.023056 83.420853,216.222885 89.353394,212.018585 
	C112.814880,195.391754 136.194595,178.649414 159.589706,161.929062 
	C191.232925,139.313797 222.854980,116.668930 254.518127,94.081642 
	C256.239075,92.853996 258.254333,92.038940 260.488831,91.019676 
	C261.569641,92.746231 262.294220,94.484947 262.708893,96.648643 
	C259.264038,98.933159 255.977066,100.579155 253.017761,102.685478 
	C225.261658,122.441299 197.559326,142.272751 169.845947,162.088593 
	C142.267532,181.807892 114.734055,201.590485 87.082695,221.206955 
	C82.000053,224.812683 76.448395,227.757278 71.079529,230.570023 
	C71.068764,228.091660 71.091682,226.050293 71.114601,224.008942 
z"/>
<path fill="#FFE15E" opacity="1.000000" stroke="none" 
	d="
M71.113220,231.007034 
	C76.448395,227.757278 82.000053,224.812683 87.082695,221.206955 
	C114.734055,201.590485 142.267532,181.807892 169.845947,162.088593 
	C197.559326,142.272751 225.261658,122.441299 253.017761,102.685478 
	C255.977066,100.579155 259.264038,98.933159 262.758301,97.017136 
	C263.738556,98.724747 264.359558,100.488838 264.906738,102.626022 
	C263.327576,103.605522 261.629761,103.941910 260.344879,104.857681 
	C224.487106,130.414642 188.670715,156.029648 152.848495,181.636444 
	C126.623894,200.382568 100.402840,219.133682 74.164391,237.860428 
	C73.502525,238.332794 72.655800,238.546158 71.504807,238.504089 
	C71.113953,235.754257 71.113586,233.380646 71.113220,231.007034 
z"/>
<path fill="#FFDE56" opacity="1.000000" stroke="none" 
	d="
M139.005981,201.832947 
	C140.055161,200.398026 140.823456,198.571884 142.195572,197.586746 
	C163.620926,182.203964 185.136047,166.946304 206.606079,151.625610 
	C224.565353,138.810135 242.478790,125.930382 260.457214,113.141914 
	C262.192810,111.907333 264.244476,111.117119 266.491516,110.059692 
	C267.545471,113.079788 268.257294,116.160820 268.901123,119.642044 
	C265.475891,121.641045 261.799225,122.789589 258.811157,124.908936 
	C231.510757,144.272110 204.331253,163.805725 177.113663,183.285660 
	C170.512070,188.010498 163.862625,192.669922 157.325195,197.481705 
	C156.046738,198.422684 155.184097,199.928558 153.605148,201.564789 
	C148.389084,201.914780 143.697525,201.873871 139.005981,201.832947 
z"/>
<path fill="#FFD744" opacity="1.000000" stroke="none" 
	d="
M160.115143,237.049683 
	C158.565369,236.712250 156.427948,235.543274 155.553421,236.161316 
	C140.904892,246.513672 126.409599,257.083069 111.902962,267.635468 
	C111.249855,268.110535 110.811813,268.881287 110.113297,269.816589 
	C105.199120,268.803772 100.445251,267.488678 95.359436,265.647614 
	C96.060875,263.723999 96.824326,261.950958 98.167999,260.984863 
	C119.433228,245.695358 140.791061,230.534607 162.051605,215.238586 
	C163.360901,214.296600 164.036987,212.474503 165.474625,211.027603 
	C173.296143,211.014099 180.650726,211.034882 188.005310,211.055634 
	C183.836197,214.602737 179.605164,218.080826 175.532501,221.735397 
	C174.158493,222.968338 173.186111,224.648880 171.670959,226.645325 
	C165.533340,228.142471 161.821701,231.460373 160.115143,237.049683 
z"/>
<path fill="#356F9F" opacity="1.000000" stroke="none" 
	d="
M112.003357,131.855957 
	C113.662399,129.078537 114.980362,126.014473 117.035126,123.569633 
	C131.835373,105.959724 146.753876,88.448761 161.697632,70.960037 
	C172.343613,58.501019 183.058914,46.100765 193.825195,33.745655 
	C195.092621,32.291191 196.879501,31.289371 198.774582,30.022057 
	C199.433838,31.047272 199.744110,32.128151 200.006256,34.027229 
	C199.917130,37.898159 199.876114,40.950886 199.506409,44.064358 
	C197.081192,45.983742 194.739304,47.631920 192.932144,49.738747 
	C186.350464,57.411884 180.028214,65.307304 173.460632,72.992844 
	C159.027924,89.882347 144.456070,106.653198 130.074219,123.585640 
	C128.005264,126.021515 126.674690,129.084549 124.543922,131.929169 
	C120.058067,131.952652 116.030716,131.904312 112.003357,131.855957 
z"/>
<path fill="#3F7CAD" opacity="1.000000" stroke="none" 
	d="
M176.927795,6.621013 
	C172.190384,12.456263 167.163956,17.890532 162.336945,23.496506 
	C153.407913,33.866467 144.570602,44.315910 135.756577,54.784004 
	C134.069778,56.787338 132.666107,59.029037 130.604416,61.559807 
	C123.386848,61.914028 116.696678,61.869205 110.006500,61.824387 
	C113.602448,56.784866 116.918350,51.514500 120.846748,46.749031 
	C132.727249,32.337021 144.845352,18.120880 156.931335,3.497918 
	C163.570786,4.210785 170.149780,5.254140 176.927795,6.621013 
z"/>
<path fill="#FFE56B" opacity="1.000000" stroke="none" 
	d="
M176.558182,138.922424 
	C170.353348,144.090027 163.936829,149.561096 157.120163,154.477341 
	C130.051331,173.999756 102.861519,193.354523 75.696594,212.743469 
	C74.497520,213.599289 73.102928,214.181183 71.424767,214.487152 
	C71.071854,210.062332 71.093590,206.041031 71.115326,202.019745 
	C76.022644,199.043930 81.133942,196.355621 85.802620,193.043427 
	C108.124840,177.206924 130.336121,161.213867 152.548721,145.223526 
	C153.834366,144.298019 154.784348,142.906174 156.414001,141.375275 
	C161.614075,140.735535 166.290680,140.451920 170.967300,140.168304 
	C172.699066,139.769150 174.430847,139.370026 176.558182,138.922424 
z"/>
<path fill="#FFDA4D" opacity="1.000000" stroke="none" 
	d="
M165.007690,211.061890 
	C164.036987,212.474503 163.360901,214.296600 162.051605,215.238586 
	C140.791061,230.534607 119.433228,245.695358 98.167999,260.984863 
	C96.824326,261.950958 96.060875,263.723999 95.013000,265.477539 
	C90.741295,263.474335 86.484077,261.115234 82.113098,258.062073 
	C82.909317,256.097260 83.566048,254.474884 84.767807,253.609116 
	C99.555206,242.956223 114.484421,232.499512 129.231339,221.791534 
	C133.719910,218.532318 137.762833,214.659378 142.476852,211.037628 
	C150.298462,211.025787 157.653061,211.043839 165.007690,211.061890 
z"/>
<path fill="#FFD53D" opacity="1.000000" stroke="none" 
	d="
M211.003616,201.837570 
	C213.603485,199.450684 215.997757,196.779541 218.838165,194.725235 
	C232.483826,184.856094 246.213486,175.101334 260.018005,165.455795 
	C261.809418,164.204102 264.207733,163.821045 266.719879,163.047485 
	C264.243713,175.062363 260.487701,186.697876 251.615372,195.799637 
	C247.675720,199.841187 242.736252,202.182739 235.993118,202.009491 
	C227.071609,201.948517 219.037613,201.893036 211.003616,201.837570 
z"/>
<path fill="#FFDE56" opacity="1.000000" stroke="none" 
	d="
M142.009857,211.067520 
	C137.762833,214.659378 133.719910,218.532318 129.231339,221.791534 
	C114.484421,232.499512 99.555206,242.956223 84.767807,253.609116 
	C83.566048,254.474884 82.909317,256.097260 81.978722,257.740845 
	C78.960464,254.672531 75.962822,251.231415 72.925461,247.429077 
	C79.926620,242.209351 87.022476,237.428284 93.996185,232.475220 
	C106.116478,223.866776 118.142845,215.126068 130.261948,206.515945 
	C131.721588,205.478958 133.512085,204.907669 135.491302,204.059540 
	C135.882690,205.434113 135.932007,206.869690 135.761108,208.990967 
	C137.697220,210.140274 139.853531,210.603897 142.009857,211.067520 
z"/>
<path fill="#FFE872" opacity="1.000000" stroke="none" 
	d="
M236.108688,70.954758 
	C239.984970,72.045212 243.861267,73.135658 247.733307,74.859756 
	C235.416443,84.479652 223.116547,93.483559 210.758499,102.406921 
	C210.040161,102.925613 208.850296,102.791306 207.879868,102.960892 
	C207.923859,102.505943 207.967865,102.050995 208.309784,100.920563 
	C208.730560,92.124817 209.009308,84.002556 208.904953,75.885231 
	C208.858566,72.277206 209.912613,70.837067 213.698425,70.947411 
	C221.162247,71.164948 228.637924,70.975739 236.108688,70.954758 
z"/>
<path fill="#FFE56C" opacity="1.000000" stroke="none" 
	d="
M207.530594,103.156357 
	C208.850296,102.791306 210.040161,102.925613 210.758499,102.406921 
	C223.116547,93.483559 235.416443,84.479652 247.895828,75.191925 
	C250.978470,77.697792 253.894379,80.505142 256.823853,83.657944 
	C254.189728,85.246437 251.291687,86.133720 248.935638,87.791374 
	C235.550171,97.208923 222.318344,106.844643 208.962189,116.304390 
	C207.381577,117.423889 205.361481,117.922874 203.205811,118.831345 
	C204.304779,113.752739 205.743057,108.552284 207.530594,103.156357 
z"/>
<path fill="#3772A2" opacity="1.000000" stroke="none" 
	d="
M36.239262,201.936279 
	C36.651451,200.081467 36.890652,197.951660 38.025742,196.544540 
	C44.565762,188.437195 51.294510,180.481171 58.027710,172.531784 
	C58.854443,171.555725 60.089073,170.925140 61.501785,170.537781 
	C61.868649,181.232254 61.868416,191.523422 61.413540,201.890381 
	C52.962273,202.003159 44.965645,202.040115 36.969021,202.077072 
	C36.969021,202.077072 36.480072,201.995071 36.239262,201.936279 
z"/>
<path fill="#FFFAE7" opacity="1.000000" stroke="none" 
	d="
M210.556976,201.899994 
	C219.037613,201.893036 227.071609,201.948517 235.573471,202.058029 
	C234.368820,202.407547 232.696747,202.957748 231.023712,202.960754 
	C199.664932,203.017136 168.306046,203.008575 136.481247,203.083557 
	C136.802368,202.750641 137.589417,202.347778 138.691223,201.888931 
	C143.697525,201.873871 148.389084,201.914780 153.544006,201.895325 
	C159.697662,201.876709 165.387939,201.918488 171.543274,201.898132 
	C177.697540,201.878357 183.386734,201.920700 189.540787,201.901031 
	C193.700287,201.879837 197.394958,201.920654 201.547028,201.899475 
	C204.706406,201.879120 207.408371,201.920776 210.556976,201.899994 
z"/>
<path fill="#FFF0A2" opacity="1.000000" stroke="none" 
	d="
M170.505539,140.098572 
	C166.290680,140.451920 161.614075,140.735535 156.474197,141.036804 
	C138.701340,141.037674 121.391731,141.031052 104.082199,140.989120 
	C102.267059,140.984726 100.452431,140.771698 98.301270,140.405624 
	C121.991249,140.113449 146.017517,140.071136 170.505539,140.098572 
z"/>
<path fill="#FFF0A2" opacity="1.000000" stroke="none" 
	d="
M71.084312,201.550018 
	C71.093590,206.041031 71.071854,210.062332 71.082039,214.546982 
	C71.092293,217.709991 71.070633,220.409622 71.081787,223.559113 
	C71.091682,226.050293 71.068764,228.091660 71.079529,230.570023 
	C71.113586,233.380646 71.113953,235.754257 71.170090,238.570709 
	C71.016563,239.282684 70.807266,239.551834 70.378510,239.954926 
	C70.104462,216.688644 70.049873,193.288437 70.075638,169.419342 
	C70.447052,172.859329 70.908562,176.764587 70.991417,180.677856 
	C71.135345,187.476059 71.045265,194.279205 71.084312,201.550018 
z"/>
<path fill="#E2EAF1" opacity="1.000000" stroke="none" 
	d="
M111.552902,131.927185 
	C116.030716,131.904312 120.058067,131.952652 125.002594,131.998566 
	C129.947754,131.949982 133.975754,131.903854 138.003754,131.857727 
	C148.151276,131.964569 158.298782,132.071411 168.695114,132.519974 
	C146.302689,132.893448 123.661469,132.925201 100.559479,132.902084 
	C103.766632,132.564270 107.434547,132.281342 111.552902,131.927185 
z"/>
<path fill="#E2EAF1" opacity="1.000000" stroke="none" 
	d="
M199.835114,44.003613 
	C199.876114,40.950886 199.917130,37.898159 200.003326,34.388329 
	C200.371979,34.588531 200.978058,35.245869 200.977982,35.903130 
	C200.975372,57.818089 200.914871,79.733047 200.466919,101.834229 
	C200.036911,87.991547 200.002823,73.962631 199.971893,59.007576 
	C199.928421,53.388828 199.881775,48.696220 199.835114,44.003613 
z"/>
<path fill="#FFF0A2" opacity="1.000000" stroke="none" 
	d="
M142.476852,211.037628 
	C139.853531,210.603897 137.697220,210.140274 135.682602,209.415894 
	C137.529221,209.440186 139.233276,209.967361 140.939148,209.973251 
	C160.329849,210.040131 179.720840,210.027390 199.561218,210.332855 
	C200.010696,210.629791 199.921982,211.078522 199.921982,211.078522 
	C196.254944,211.045578 192.587906,211.012634 188.463089,211.017670 
	C180.650726,211.034882 173.296143,211.014099 165.474609,211.027588 
	C157.653061,211.043839 150.298462,211.025787 142.476852,211.037628 
z"/>
<path fill="#FFF0A2" opacity="1.000000" stroke="none" 
	d="
M235.891388,70.569351 
	C228.637924,70.975739 221.162247,71.164948 213.698425,70.947411 
	C209.912613,70.837067 208.858566,72.277206 208.904953,75.885231 
	C209.009308,84.002556 208.730560,92.124817 208.390381,100.586685 
	C208.173019,90.841949 208.173019,80.755592 208.173019,70.183945 
	C217.304245,70.183945 226.489166,70.183945 235.891388,70.569351 
z"/>
<path fill="#8DB3D0" opacity="1.000000" stroke="none" 
	d="
M61.868183,201.814575 
	C61.868416,191.523422 61.868649,181.232254 61.828136,170.474487 
	C61.989681,169.742661 62.191975,169.477478 62.624279,169.110123 
	C62.915466,179.678711 62.976643,190.349457 62.708008,201.439743 
	C62.208195,201.844376 62.038189,201.829483 61.868183,201.814575 
z"/>
<path fill="#FFFAE7" opacity="1.000000" stroke="none" 
	d="
M199.955841,211.540527 
	C199.921982,211.078522 200.010696,210.629791 200.028290,210.401733 
	C200.362671,211.607300 200.942398,213.039108 200.952377,214.474884 
	C201.005981,222.186005 200.917801,229.898102 200.498840,237.822372 
	C200.075989,229.357422 200.032852,220.679977 199.955841,211.540527 
z"/>
<path fill="#E2EAF1" opacity="1.000000" stroke="none" 
	d="
M61.413540,201.890381 
	C62.038189,201.829483 62.208195,201.844376 62.630798,201.898865 
	C62.130939,202.293518 61.379654,202.953659 60.625854,202.956558 
	C52.868595,202.986267 45.110924,202.909592 37.161194,202.469818 
	C44.965645,202.040115 52.962273,202.003159 61.413540,201.890381 
z"/>
<path fill="#FFE56C" opacity="1.000000" stroke="none" 
	d="
M201.638062,119.993324 
	C201.746521,120.440681 201.557739,121.009590 201.120804,121.758255 
	C201.028702,121.330299 201.184769,120.722580 201.638062,119.993324 
z"/>
<path fill="#FFD744" opacity="1.000000" stroke="none" 
	d="
M112.329895,270.924408 
	C112.553703,270.733490 113.105797,270.618561 113.823639,270.677673 
	C113.545647,270.901276 113.101913,270.950867 112.329895,270.924408 
z"/>
<path fill="#4A8ABC" opacity="1.000000" stroke="none" 
	d="
M108.382919,2.199874 
	C108.709236,1.972454 108.637650,1.963734 108.603783,1.967360 
	C108.839096,2.253785 109.108284,2.536584 109.669456,2.850526 
	C107.907639,5.821167 105.758484,8.699698 103.828384,11.718291 
	C102.094810,14.429524 100.601906,17.294638 98.660149,20.635727 
	C90.601463,22.552256 87.282837,27.580954 86.503021,35.057587 
	C84.429321,36.781570 82.705048,38.464096 80.935432,40.097492 
	C77.698204,43.085518 74.434174,46.044502 71.138847,48.549316 
	C70.772957,42.720680 70.449532,37.358330 70.126114,31.995979 
	C70.945038,20.127409 74.633873,11.450566 87.453903,7.851291 
	C94.290215,5.931968 101.187065,4.228297 108.382919,2.199874 
z"/>
<path fill="#8DB3D0" opacity="1.000000" stroke="none" 
	d="
M98.476509,71.088776 
	C91.654350,71.105446 85.298309,71.078674 78.476219,71.094177 
	C72.320442,71.110497 66.630707,71.084564 60.475285,71.100250 
	C54.657131,71.101585 49.304665,71.061310 43.480583,70.795616 
	C43.008972,70.570206 43.033653,70.148521 43.033653,70.148521 
	C73.376663,70.098389 103.719673,70.048256 134.526855,69.933563 
	C130.305786,70.257919 125.620522,70.646828 120.472267,71.080933 
	C112.987061,71.099197 105.964836,71.072266 98.476509,71.088776 
z"/>
<path fill="#E2EAF1" opacity="1.000000" stroke="none" 
	d="
M109.541451,61.889900 
	C116.696678,61.869205 123.386848,61.914028 130.541901,61.892128 
	C132.223373,61.988960 133.439957,62.152512 134.783081,62.662392 
	C113.394234,62.954388 91.878860,62.900051 70.494606,62.379951 
	C70.625725,61.914192 71.116333,61.823566 71.571625,61.885078 
	C77.021942,61.905750 82.016968,61.864902 87.011986,61.824059 
	C94.366791,61.867844 101.721596,61.911629 109.541451,61.889900 
z"/>
<path fill="#8DB3D0" opacity="1.000000" stroke="none" 
	d="
M71.116333,61.823566 
	C71.116333,61.823566 70.625725,61.914192 70.380035,61.956581 
	C70.079430,52.308300 70.024498,42.617630 70.047836,32.461472 
	C70.449532,37.358330 70.772957,42.720680 71.095825,49.008270 
	C71.102295,53.896866 71.109314,57.860214 71.116333,61.823566 
z"/>
<path fill="#4C8CBE" opacity="1.000000" stroke="none" 
	d="
M42.768963,70.126015 
	C43.033653,70.148521 43.008972,70.570206 43.014393,70.781097 
	C42.837158,70.990723 42.654503,70.989441 42.197533,70.969818 
	C42.116905,70.668816 42.310589,70.386162 42.768963,70.126015 
z"/>
<path fill="#000000" opacity="1.000000" stroke="none" 
	d="
M86.832001,34.993973 
	C87.282837,27.580954 90.601463,22.552256 98.656219,21.009312 
	C104.052910,22.359173 108.147697,24.991352 110.007217,30.653938 
	C109.790710,40.424660 107.442932,43.531342 98.006851,46.021393 
	C92.021698,44.019749 87.932983,40.921478 86.832001,34.993973 
z"/>
<path fill="#4785B7" opacity="1.000000" stroke="none" 
	d="
M86.503021,35.057587 
	C87.932983,40.921478 92.021698,44.019749 97.631996,46.093166 
	C95.652809,49.287220 93.285835,52.386513 90.984100,55.533520 
	C89.643608,57.366299 88.407623,59.275524 87.068298,61.487206 
	C82.016968,61.864902 77.021942,61.905750 71.571625,61.885078 
	C71.109314,57.860214 71.102295,53.896866 71.138306,49.474556 
	C74.434174,46.044502 77.698204,43.085518 80.935432,40.097492 
	C82.705048,38.464096 84.429321,36.781570 86.503021,35.057587 
z"/>
<path fill="#000000" opacity="1.000000" stroke="none" 
	d="
M160.064789,237.465225 
	C161.821701,231.460373 165.533340,228.142471 171.657364,227.001312 
	C174.392624,228.124466 177.069641,229.067612 179.111893,230.771545 
	C183.335220,234.295319 184.400406,240.528122 182.001617,244.955246 
	C179.371201,249.809799 173.827591,252.213593 168.125351,250.972214 
	C163.968887,250.067352 160.167038,244.642532 160.004059,239.375198 
	C159.988678,238.877640 160.010101,238.378952 160.064789,237.465225 
z"/>
<path fill="#336D9C" opacity="1.000000" stroke="none" 
	d="
M199.506409,44.064358 
	C199.881775,48.696220 199.928421,53.388828 199.905609,58.543449 
	C198.019745,60.383152 195.884979,61.488762 194.437805,63.182041 
	C183.883865,75.530724 173.489075,88.015213 163.001831,100.421165 
	C155.295685,109.537239 147.504944,118.581902 139.814514,127.711121 
	C139.002930,128.674545 138.613785,129.993805 138.016205,131.502869 
	C133.975754,131.903854 129.947754,131.949982 125.461090,131.926727 
	C126.674690,129.084549 128.005264,126.021515 130.074219,123.585640 
	C144.456070,106.653198 159.027924,89.882347 173.460632,72.992844 
	C180.028214,65.307304 186.350464,57.411884 192.932144,49.738747 
	C194.739304,47.631920 197.081192,45.983742 199.506409,44.064358 
z"/>
</svg>