<?xml version="1.0" standalone="no"?>
<!DOCTYPE svg PUBLIC "-//W3C//DTD SVG 20010904//EN"
 "http://www.w3.org/TR/2001/REC-SVG-20010904/DTD/svg10.dtd">
<svg version="1.0" xmlns="http://www.w3.org/2000/svg"
 width="172.000000pt" height="188.000000pt" viewBox="0 0 172.000000 188.000000"
 preserveAspectRatio="xMidYMid meet">

<g transform="translate(0.000000,188.000000) scale(0.100000,-0.100000)"
fill="#000000" stroke="none">
<path d="M723 1869 c-50 -4 -96 -10 -102 -13 -6 -4 -51 -53 -101 -111 l-90
-103 0 -66 0 -66 200 0 200 0 0 -30 0 -30 -282 -1 -283 0 -127 -150 c-127
-149 -128 -151 -129 -202 -3 -187 30 -324 95 -395 38 -42 76 -55 179 -60 l97
-5 0 122 c0 137 8 167 65 229 69 77 90 82 348 82 275 0 316 7 373 64 25 24 46
58 53 81 14 52 14 437 0 488 -13 46 -67 109 -114 131 -68 33 -227 47 -382 35z
m-66 -131 c33 -31 32 -90 -3 -117 -32 -25 -62 -27 -92 -5 -45 32 -48 99 -5
132 26 19 74 14 100 -10z"/>
</g>
</svg>
