<?xml version="1.0" standalone="no"?>
<!DOCTYPE svg PUBLIC "-//W3C//DTD SVG 20010904//EN"
 "http://www.w3.org/TR/2001/REC-SVG-20010904/DTD/svg10.dtd">
<svg version="1.0" xmlns="http://www.w3.org/2000/svg"
 width="340.000000pt" height="315.000000pt" viewBox="0 0 340.000000 315.000000"
 preserveAspectRatio="xMidYMid meet">

<g transform="translate(0.000000,315.000000) scale(0.100000,-0.100000)"
fill="#000000" stroke="none">
<path d="M100 3126 c-20 -13 -49 -48 -65 -77 l-30 -54 -3 -1300 c-2 -916 0
-1324 8 -1380 15 -103 44 -163 96 -192 l39 -23 1480 0 c939 0 1496 4 1523 10
59 14 107 48 134 95 l23 40 9 1095 c12 1595 13 1513 -8 1595 -22 85 -60 158
-99 191 l-29 24 -1521 0 -1522 0 -35 -24z m3017 -10 c61 -14 105 -65 125 -146
5 -19 8 -631 8 -1359 -1 -1273 -2 -1327 -20 -1367 -13 -31 -30 -49 -62 -66
l-43 -23 -1440 -5 c-1109 -4 -1451 -2 -1490 7 -33 8 -59 23 -77 42 -59 66 -57
11 -59 1444 -1 1037 1 1321 11 1352 24 76 75 112 173 123 82 9 2833 7 2874 -2z"/>
<path d="M1421 2419 c-1 -18 -38 -37 -63 -33 -10 1 -18 -4 -18 -12 0 -8 -4
-14 -10 -14 -18 0 -10 -15 18 -32 17 -11 21 -18 11 -18 -8 0 -23 -16 -32 -35
-15 -32 -20 -35 -61 -35 -36 0 -46 -4 -51 -20 -3 -11 -11 -20 -16 -20 -19 0
-8 -19 24 -39 17 -11 26 -21 19 -21 -7 0 -20 -15 -29 -34 -14 -31 -19 -33 -40
-25 -13 5 -43 9 -65 9 -32 0 -38 -3 -30 -13 8 -10 6 -16 -9 -26 -12 -7 -18
-15 -15 -19 4 -3 -4 -12 -16 -19 -21 -11 -19 -12 27 -13 61 0 89 -15 62 -31
-9 -6 -15 -15 -11 -20 3 -6 -1 -16 -10 -22 -9 -7 -22 -24 -29 -37 -11 -20 -19
-24 -46 -22 -19 2 -48 1 -66 -2 -27 -5 -34 -13 -44 -47 -7 -23 -14 -46 -17
-53 -3 -7 11 -10 46 -8 27 2 50 1 50 -2 0 -3 -14 -19 -30 -36 -17 -17 -28 -35
-25 -41 4 -5 -4 -9 -17 -9 -39 -1 -70 -25 -84 -66 -17 -50 -17 -55 1 -48 17 7
19 -2 5 -19 -23 -27 -50 -60 -50 -61 0 -1 -9 -31 -19 -69 l-20 -67 57 0 c54 0
63 -12 17 -23 -11 -3 -2 -5 19 -6 56 -1 98 34 137 117 18 37 41 79 51 94 l18
26 -39 -5 c-23 -3 -41 -1 -45 6 -5 7 5 11 28 11 61 0 105 53 190 225 19 39 37
82 40 97 6 26 5 27 -24 22 -19 -4 -30 -2 -30 5 0 6 6 11 14 11 24 0 83 79 111
148 15 37 42 101 60 142 45 102 67 175 62 202 -2 13 -5 16 -6 7z"/>
<path d="M938 2178 c-9 -26 -12 -51 -7 -63 7 -18 8 -17 8 6 1 14 6 40 12 58 6
18 9 34 6 37 -2 3 -11 -14 -19 -38z"/>
<path d="M818 1947 c-112 -255 -148 -425 -118 -551 12 -51 11 -58 -33 -202
-61 -203 -89 -305 -85 -310 3 -2 44 126 93 284 48 158 105 341 126 407 43 133
47 157 20 106 -17 -32 -19 -33 -25 -14 -4 12 -1 43 5 69 12 47 12 47 29 26 17
-21 18 -21 38 36 16 43 21 87 24 180 2 67 1 122 -2 122 -3 0 -35 -69 -72 -153z
m-48 -396 c0 -20 -13 -35 -23 -25 -7 8 4 44 14 44 5 0 9 -9 9 -19z m-49 -148
c-12 -20 -14 -14 -5 12 4 9 9 14 11 11 3 -2 0 -13 -6 -23z"/>
<path d="M2450 1732 c-32 -15 -35 -22 -38 -64 l-3 -47 68 -3 c52 -2 68 -6 68
-18 0 -12 -22 -16 -115 -20 -63 -3 -121 -9 -128 -13 -44 -29 -57 -182 -20
-248 12 -22 29 -39 37 -40 9 0 26 -2 39 -5 21 -4 22 -1 22 52 0 40 6 64 21 85
20 29 22 29 115 29 99 0 146 14 158 45 8 23 7 208 -2 221 -28 43 -158 59 -222
26z m39 -36 c9 -11 9 -19 -1 -35 -7 -12 -17 -21 -23 -21 -6 0 -16 9 -23 21
-14 22 -2 49 23 49 7 0 18 -6 24 -14z"/>
<path d="M1739 1613 c-6 -32 -28 -140 -49 -241 l-37 -183 26 3 c22 3 27 10 36
50 9 43 38 88 56 88 4 0 27 -31 51 -70 39 -62 46 -69 76 -70 l33 0 -61 89 -60
90 88 80 87 81 -35 0 c-30 0 -46 -11 -118 -82 -45 -44 -84 -79 -86 -77 -2 2 9
65 25 139 34 165 34 160 5 160 -22 0 -26 -7 -37 -57z"/>
<path d="M1347 1643 c-4 -3 -7 -15 -7 -25 0 -16 9 -18 70 -18 39 0 70 -3 70
-8 0 -4 -15 -79 -34 -167 -53 -253 -52 -237 -20 -233 28 3 28 4 66 193 21 105
40 195 42 202 3 8 33 13 78 15 67 3 73 5 76 26 l3 22 -169 0 c-93 0 -172 -3
-175 -7z"/>
<path d="M2056 1429 c-22 -17 -27 -29 -24 -55 2 -23 -4 -40 -20 -56 -12 -13
-25 -38 -28 -55 -5 -26 -1 -37 19 -57 29 -29 59 -33 99 -12 16 9 30 11 33 5 4
-5 15 -9 26 -9 18 0 19 2 6 21 -13 18 -12 25 10 65 19 34 21 44 10 44 -8 0
-20 -13 -27 -30 -7 -16 -16 -30 -21 -30 -17 0 -81 108 -77 132 3 20 8 23 46
22 46 -1 59 19 20 30 -36 9 -43 7 -72 -15z m27 -150 c15 -21 27 -44 27 -49 0
-12 -41 -23 -67 -18 -28 5 -40 51 -19 82 9 14 20 26 24 26 4 -1 19 -19 35 -41z"/>
<path d="M778 1293 c12 -2 30 -2 40 0 9 3 -1 5 -23 4 -22 0 -30 -2 -17 -4z"/>
</g>
</svg>
